<svg width="60" height="30" viewBox="0 0 60 30" fill="none" xmlns="http://www.w3.org/2000/svg">
<rect width="60" height="30" rx="4" fill="#E50914"/>
<path d="M23.9714 18.524V19.82H13.9634V18.524H18.1634V16.88H15.1154V13.136H21.2834V11.948H15.1034V10.688H22.8434V14.372H16.6874V15.608H23.0954V16.88H19.7474V18.524H23.9714ZM32.1845 12.26H26.0285V11H33.7685V12.308C33.7685 12.692 33.7645 13.08 33.7565 13.472C33.7565 13.864 33.7445 14.276 33.7205 14.708C33.6965 15.132 33.6565 15.584 33.6005 16.064C33.5445 16.544 33.4645 17.068 33.3605 17.636L31.7885 17.492C31.8845 16.964 31.9605 16.468 32.0165 16.004C32.0725 15.54 32.1125 15.096 32.1365 14.672C32.1605 14.248 32.1725 13.844 32.1725 13.46C32.1805 13.068 32.1845 12.684 32.1845 12.308V12.26ZM34.9925 18.296V19.592H24.9965V18.296H34.9925ZM45.2095 17.924H43.6135V9.992H45.2095V17.924ZM37.7335 13.496C37.7335 13.944 37.8735 14.296 38.1535 14.552C38.4415 14.8 38.7895 14.924 39.1975 14.924C39.6135 14.924 39.9575 14.8 40.2295 14.552C40.5095 14.296 40.6495 13.944 40.6495 13.496C40.6495 13.04 40.5095 12.688 40.2295 12.44C39.9575 12.184 39.6135 12.056 39.1975 12.056C38.7895 12.056 38.4415 12.184 38.1535 12.44C37.8735 12.688 37.7335 13.04 37.7335 13.496ZM42.1975 13.496C42.1975 13.896 42.1215 14.268 41.9695 14.612C41.8175 14.956 41.6055 15.252 41.3335 15.5C41.0615 15.748 40.7415 15.944 40.3735 16.088C40.0135 16.224 39.6215 16.292 39.1975 16.292C38.7735 16.292 38.3775 16.224 38.0095 16.088C37.6415 15.944 37.3215 15.748 37.0495 15.5C36.7855 15.252 36.5735 14.956 36.4135 14.612C36.2615 14.268 36.1855 13.896 36.1855 13.496C36.1855 13.088 36.2615 12.712 36.4135 12.368C36.5735 12.024 36.7855 11.728 37.0495 11.48C37.3215 11.232 37.6415 11.04 38.0095 10.904C38.3775 10.76 38.7735 10.688 39.1975 10.688C39.6215 10.688 40.0135 10.76 40.3735 10.904C40.7415 11.04 41.0615 11.232 41.3335 11.48C41.6055 11.728 41.8175 12.024 41.9695 12.368C42.1215 12.712 42.1975 13.088 42.1975 13.496ZM45.4855 19.58V20.84H37.8535V17.144H39.4375V19.58H45.4855Z" fill="white"/>
</svg>
